<svg width="24" height="25" viewBox="0 0 24 25" fill="none" xmlns="http://www.w3.org/2000/svg">
<path opacity="0.5" fill-rule="evenodd" clip-rule="evenodd" d="M10 22.5659H14C17.771 22.5659 19.657 22.5659 20.828 21.3939C22 20.2229 22 18.3369 22 14.5659V14.1289C22 13.2559 22 12.5999 21.957 12.0659H17.905C16.808 12.0659 15.838 12.0659 15.057 11.9609C14.21 11.8469 13.363 11.5859 12.672 10.8949C11.98 10.2029 11.719 9.35592 11.605 8.50892C11.5 7.72792 11.5 6.75892 11.5 5.66092L11.51 2.82692C11.51 2.74392 11.517 2.66292 11.53 2.58292C11.121 2.56592 10.636 2.56592 10.03 2.56592C6.239 2.56592 4.343 2.56592 3.172 3.73792C2 4.90892 2 6.79492 2 10.5659V14.5659C2 18.3369 2 20.2229 3.172 21.3939C4.343 22.5659 6.229 22.5659 10 22.5659Z" fill="#9D36AE"/>
<path d="M9.013 19.6129C8.87399 19.7433 8.69057 19.8158 8.5 19.8158C8.30943 19.8158 8.12601 19.7433 7.987 19.6129L5.987 17.7379C5.84531 17.6011 5.76315 17.4139 5.75829 17.217C5.75342 17.0201 5.82624 16.8291 5.961 16.6854C6.09576 16.5417 6.28165 16.4568 6.47849 16.4491C6.67534 16.4413 6.86734 16.5113 7.013 16.6439L7.75 17.3339V14.0659C7.75 13.867 7.82902 13.6762 7.96967 13.5356C8.11032 13.3949 8.30109 13.3159 8.5 13.3159C8.69891 13.3159 8.88968 13.3949 9.03033 13.5356C9.17098 13.6762 9.25 13.867 9.25 14.0659V17.3349L9.987 16.6439C10.1327 16.5113 10.3247 16.4413 10.5215 16.4491C10.7184 16.4568 10.9042 16.5417 11.039 16.6854C11.1738 16.8291 11.2466 17.0201 11.2417 17.217C11.2368 17.4139 11.1547 17.6011 11.013 17.7379L9.013 19.6129ZM11.51 2.82592L11.5 5.66092C11.5 6.75792 11.5 7.72692 11.605 8.50892C11.719 9.35592 11.98 10.2029 12.672 10.8939C13.362 11.5849 14.21 11.8469 15.057 11.9609C15.838 12.0659 16.808 12.0659 17.905 12.0659H21.957C21.97 12.2209 21.979 12.3869 21.985 12.5659H22C22 12.2979 22 12.1639 21.99 12.0059C21.913 11.0557 21.5821 10.1436 21.032 9.36492C20.938 9.23692 20.874 9.16092 20.747 9.00792C19.954 8.05992 18.91 6.87792 18 6.06592C17.19 5.34192 16.079 4.55092 15.11 3.90492C14.278 3.34892 13.862 3.07092 13.291 2.86492C13.1249 2.80549 12.956 2.75409 12.785 2.71092C12.401 2.61592 12.027 2.58292 11.5 2.57092L11.51 2.82592Z" fill="#9D36AE"/>
</svg>
